<?xml version="1.0" encoding="UTF-8"?>
<svg width="2169px" height="2855px" viewBox="0 0 2169 2855" version="1.1" xmlns="http://www.w3.org/2000/svg" xmlns:xlink="http://www.w3.org/1999/xlink">
    <g id="Page-1" stroke="none" stroke-width="1" fill="none" fill-rule="evenodd">
        <g id="Group-5" fill="#514493">
            <g id="Group-2-Copy-3" transform="translate(1459.000000, 29.000000)">
                <circle id="Oval-3" cx="140" cy="115" r="6"></circle>
                <circle id="Oval-3-Copy" cx="228" cy="249" r="6"></circle>
                <circle id="Oval-3-Copy-2" cx="292" cy="143" r="6"></circle>
                <circle id="Oval-3-Copy-3" cx="140" cy="313" r="6"></circle>
                <circle id="Oval-3-Copy-4" cx="395" cy="325" r="6"></circle>
                <circle id="Oval-3-Copy-5" cx="321" cy="369" r="6"></circle>
                <circle id="Oval-3-Copy-6" cx="455" cy="155" r="6"></circle>
                <circle id="Oval-3-Copy-7" cx="333" cy="6" r="6"></circle>
                <circle id="Oval-3-Copy-8" cx="514" cy="301" r="6"></circle>
                <circle id="Oval-3-Copy-9" cx="455" cy="506" r="6"></circle>
                <circle id="Oval-3-Copy-10" cx="152" cy="450" r="6"></circle>
                <circle id="Oval-3-Copy-11" cx="18" cy="214" r="6"></circle>
                <circle id="Oval-3-Copy-12" cx="526" cy="18" r="6"></circle>
                <circle id="Oval-3-Copy-13" cx="704" cy="143" r="6"></circle>
                <circle id="Oval-3-Copy-14" cx="636" cy="462" r="6"></circle>
                <circle id="Oval-3-Copy-15" cx="508" cy="589" r="6"></circle>
                <circle id="Oval-3-Copy-16" cx="6" cy="558" r="6"></circle>
                <circle id="Oval-3-Copy-17" cx="158" cy="610" r="6"></circle>
                <circle id="Oval-3-Copy-18" cx="47" cy="30" r="6"></circle>
                <circle id="Oval-3-Copy-19" cx="47" cy="30" r="6"></circle>
            </g>
            <g id="Group-2-Copy-8" opacity="0.7" transform="translate(1399.000000, 766.000000)">
                <circle id="Oval-3" cx="140" cy="115" r="6"></circle>
                <circle id="Oval-3-Copy" cx="228" cy="249" r="6"></circle>
                <circle id="Oval-3-Copy-2" cx="292" cy="143" r="6"></circle>
                <circle id="Oval-3-Copy-3" cx="140" cy="313" r="6"></circle>
                <circle id="Oval-3-Copy-4" cx="395" cy="325" r="6"></circle>
                <circle id="Oval-3-Copy-5" cx="321" cy="369" r="6"></circle>
                <circle id="Oval-3-Copy-6" cx="455" cy="155" r="6"></circle>
                <circle id="Oval-3-Copy-7" cx="333" cy="6" r="6"></circle>
                <circle id="Oval-3-Copy-8" cx="514" cy="301" r="6"></circle>
                <circle id="Oval-3-Copy-9" cx="455" cy="506" r="6"></circle>
                <circle id="Oval-3-Copy-10" cx="152" cy="450" r="6"></circle>
                <circle id="Oval-3-Copy-11" cx="18" cy="214" r="6"></circle>
                <circle id="Oval-3-Copy-12" cx="526" cy="18" r="6"></circle>
                <circle id="Oval-3-Copy-13" cx="704" cy="143" r="6"></circle>
                <circle id="Oval-3-Copy-14" cx="636" cy="462" r="6"></circle>
                <circle id="Oval-3-Copy-15" cx="508" cy="589" r="6"></circle>
                <circle id="Oval-3-Copy-16" cx="6" cy="558" r="6"></circle>
                <circle id="Oval-3-Copy-17" cx="158" cy="610" r="6"></circle>
                <circle id="Oval-3-Copy-18" cx="47" cy="30" r="6"></circle>
                <circle id="Oval-3-Copy-19" cx="47" cy="30" r="6"></circle>
            </g>
            <g id="Group-2-Copy-12" opacity="0.4" transform="translate(749.000000, 1522.000000)">
                <circle id="Oval-3" cx="140" cy="115" r="6"></circle>
                <circle id="Oval-3-Copy" cx="228" cy="249" r="6"></circle>
                <circle id="Oval-3-Copy-2" cx="292" cy="143" r="6"></circle>
                <circle id="Oval-3-Copy-3" cx="140" cy="313" r="6"></circle>
                <circle id="Oval-3-Copy-4" cx="395" cy="325" r="6"></circle>
                <circle id="Oval-3-Copy-5" cx="321" cy="369" r="6"></circle>
                <circle id="Oval-3-Copy-6" cx="455" cy="155" r="6"></circle>
                <circle id="Oval-3-Copy-7" cx="333" cy="6" r="6"></circle>
                <circle id="Oval-3-Copy-8" cx="514" cy="301" r="6"></circle>
                <circle id="Oval-3-Copy-9" cx="455" cy="506" r="6"></circle>
                <circle id="Oval-3-Copy-10" cx="152" cy="450" r="6"></circle>
                <circle id="Oval-3-Copy-11" cx="18" cy="214" r="6"></circle>
                <circle id="Oval-3-Copy-12" cx="526" cy="18" r="6"></circle>
                <circle id="Oval-3-Copy-13" cx="704" cy="143" r="6"></circle>
                <circle id="Oval-3-Copy-14" cx="636" cy="462" r="6"></circle>
                <circle id="Oval-3-Copy-15" cx="508" cy="589" r="6"></circle>
                <circle id="Oval-3-Copy-16" cx="6" cy="558" r="6"></circle>
                <circle id="Oval-3-Copy-17" cx="158" cy="610" r="6"></circle>
                <circle id="Oval-3-Copy-18" cx="47" cy="30" r="6"></circle>
                <circle id="Oval-3-Copy-19" cx="47" cy="30" r="6"></circle>
            </g>
            <g id="Group-2" transform="translate(39.000000, 0.000000)">
                <circle id="Oval-3" cx="140" cy="115" r="6"></circle>
                <circle id="Oval-3-Copy" cx="228" cy="249" r="6"></circle>
                <circle id="Oval-3-Copy-2" cx="292" cy="143" r="6"></circle>
                <circle id="Oval-3-Copy-3" cx="140" cy="313" r="6"></circle>
                <circle id="Oval-3-Copy-4" cx="395" cy="325" r="6"></circle>
                <circle id="Oval-3-Copy-5" cx="321" cy="369" r="6"></circle>
                <circle id="Oval-3-Copy-6" cx="455" cy="155" r="6"></circle>
                <circle id="Oval-3-Copy-7" cx="333" cy="6" r="6"></circle>
                <circle id="Oval-3-Copy-8" cx="514" cy="301" r="6"></circle>
                <circle id="Oval-3-Copy-9" cx="455" cy="506" r="6"></circle>
                <circle id="Oval-3-Copy-10" cx="152" cy="450" r="6"></circle>
                <circle id="Oval-3-Copy-11" cx="18" cy="214" r="6"></circle>
                <circle id="Oval-3-Copy-12" cx="526" cy="18" r="6"></circle>
                <circle id="Oval-3-Copy-13" cx="704" cy="143" r="6"></circle>
                <circle id="Oval-3-Copy-14" cx="636" cy="462" r="6"></circle>
                <circle id="Oval-3-Copy-15" cx="508" cy="589" r="6"></circle>
                <circle id="Oval-3-Copy-16" cx="6" cy="558" r="6"></circle>
                <circle id="Oval-3-Copy-17" cx="158" cy="610" r="6"></circle>
                <circle id="Oval-3-Copy-18" cx="47" cy="30" r="6"></circle>
                <circle id="Oval-3-Copy-19" cx="47" cy="30" r="6"></circle>
            </g>
            <g id="Group-2-Copy" opacity="0.7" transform="translate(39.000000, 681.000000)">
                <circle id="Oval-3" cx="140" cy="115" r="6"></circle>
                <circle id="Oval-3-Copy" cx="228" cy="249" r="6"></circle>
                <circle id="Oval-3-Copy-2" cx="292" cy="143" r="6"></circle>
                <circle id="Oval-3-Copy-3" cx="140" cy="313" r="6"></circle>
                <circle id="Oval-3-Copy-4" cx="395" cy="325" r="6"></circle>
                <circle id="Oval-3-Copy-5" cx="321" cy="369" r="6"></circle>
                <circle id="Oval-3-Copy-6" cx="455" cy="155" r="6"></circle>
                <circle id="Oval-3-Copy-7" cx="333" cy="6" r="6"></circle>
                <circle id="Oval-3-Copy-8" cx="514" cy="301" r="6"></circle>
                <circle id="Oval-3-Copy-9" cx="455" cy="506" r="6"></circle>
                <circle id="Oval-3-Copy-10" cx="152" cy="450" r="6"></circle>
                <circle id="Oval-3-Copy-11" cx="18" cy="214" r="6"></circle>
                <circle id="Oval-3-Copy-12" cx="526" cy="18" r="6"></circle>
                <circle id="Oval-3-Copy-13" cx="704" cy="143" r="6"></circle>
                <circle id="Oval-3-Copy-14" cx="636" cy="462" r="6"></circle>
                <circle id="Oval-3-Copy-15" cx="508" cy="589" r="6"></circle>
                <circle id="Oval-3-Copy-16" cx="6" cy="558" r="6"></circle>
                <circle id="Oval-3-Copy-17" cx="158" cy="610" r="6"></circle>
                <circle id="Oval-3-Copy-18" cx="47" cy="30" r="6"></circle>
                <circle id="Oval-3-Copy-19" cx="47" cy="30" r="6"></circle>
            </g>
            <g id="Group-2-Copy-2" transform="translate(834.000000, 0.000000)">
                <circle id="Oval-3" cx="140" cy="115" r="6"></circle>
                <circle id="Oval-3-Copy" cx="228" cy="249" r="6"></circle>
                <circle id="Oval-3-Copy-2" cx="292" cy="143" r="6"></circle>
                <circle id="Oval-3-Copy-3" cx="140" cy="313" r="6"></circle>
                <circle id="Oval-3-Copy-4" cx="395" cy="325" r="6"></circle>
                <circle id="Oval-3-Copy-5" cx="321" cy="369" r="6"></circle>
                <circle id="Oval-3-Copy-6" cx="455" cy="155" r="6"></circle>
                <circle id="Oval-3-Copy-7" cx="333" cy="6" r="6"></circle>
                <circle id="Oval-3-Copy-8" cx="514" cy="301" r="6"></circle>
                <circle id="Oval-3-Copy-9" cx="455" cy="506" r="6"></circle>
                <circle id="Oval-3-Copy-10" cx="152" cy="450" r="6"></circle>
                <circle id="Oval-3-Copy-11" cx="18" cy="214" r="6"></circle>
                <circle id="Oval-3-Copy-12" cx="526" cy="18" r="6"></circle>
                <circle id="Oval-3-Copy-13" cx="704" cy="143" r="6"></circle>
                <circle id="Oval-3-Copy-14" cx="636" cy="462" r="6"></circle>
                <circle id="Oval-3-Copy-15" cx="508" cy="589" r="6"></circle>
                <circle id="Oval-3-Copy-16" cx="6" cy="558" r="6"></circle>
                <circle id="Oval-3-Copy-17" cx="158" cy="610" r="6"></circle>
                <circle id="Oval-3-Copy-18" cx="47" cy="30" r="6"></circle>
                <circle id="Oval-3-Copy-19" cx="47" cy="30" r="6"></circle>
            </g>
            <g id="Group-2-Copy-9" opacity="0.7" transform="translate(749.000000, 766.000000)">
                <circle id="Oval-3" cx="140" cy="115" r="6"></circle>
                <circle id="Oval-3-Copy" cx="228" cy="249" r="6"></circle>
                <circle id="Oval-3-Copy-2" cx="292" cy="143" r="6"></circle>
                <circle id="Oval-3-Copy-3" cx="140" cy="313" r="6"></circle>
                <circle id="Oval-3-Copy-4" cx="395" cy="325" r="6"></circle>
                <circle id="Oval-3-Copy-5" cx="321" cy="369" r="6"></circle>
                <circle id="Oval-3-Copy-6" cx="455" cy="155" r="6"></circle>
                <circle id="Oval-3-Copy-7" cx="333" cy="6" r="6"></circle>
                <circle id="Oval-3-Copy-8" cx="514" cy="301" r="6"></circle>
                <circle id="Oval-3-Copy-9" cx="455" cy="506" r="6"></circle>
                <circle id="Oval-3-Copy-10" cx="152" cy="450" r="6"></circle>
                <circle id="Oval-3-Copy-11" cx="18" cy="214" r="6"></circle>
                <circle id="Oval-3-Copy-12" cx="526" cy="18" r="6"></circle>
                <circle id="Oval-3-Copy-13" cx="704" cy="143" r="6"></circle>
                <circle id="Oval-3-Copy-14" cx="636" cy="462" r="6"></circle>
                <circle id="Oval-3-Copy-15" cx="508" cy="589" r="6"></circle>
                <circle id="Oval-3-Copy-16" cx="6" cy="558" r="6"></circle>
                <circle id="Oval-3-Copy-17" cx="158" cy="610" r="6"></circle>
                <circle id="Oval-3-Copy-18" cx="47" cy="30" r="6"></circle>
                <circle id="Oval-3-Copy-19" cx="47" cy="30" r="6"></circle>
            </g>
            <g id="Group-2-Copy-10" opacity="0.4" transform="translate(124.000000, 1431.000000)">
                <circle id="Oval-3" cx="140" cy="115" r="6"></circle>
                <circle id="Oval-3-Copy" cx="228" cy="249" r="6"></circle>
                <circle id="Oval-3-Copy-2" cx="292" cy="143" r="6"></circle>
                <circle id="Oval-3-Copy-3" cx="140" cy="313" r="6"></circle>
                <circle id="Oval-3-Copy-4" cx="395" cy="325" r="6"></circle>
                <circle id="Oval-3-Copy-5" cx="321" cy="369" r="6"></circle>
                <circle id="Oval-3-Copy-6" cx="455" cy="155" r="6"></circle>
                <circle id="Oval-3-Copy-7" cx="333" cy="6" r="6"></circle>
                <circle id="Oval-3-Copy-8" cx="514" cy="301" r="6"></circle>
                <circle id="Oval-3-Copy-9" cx="455" cy="506" r="6"></circle>
                <circle id="Oval-3-Copy-10" cx="152" cy="450" r="6"></circle>
                <circle id="Oval-3-Copy-11" cx="18" cy="214" r="6"></circle>
                <circle id="Oval-3-Copy-12" cx="526" cy="18" r="6"></circle>
                <circle id="Oval-3-Copy-13" cx="704" cy="143" r="6"></circle>
                <circle id="Oval-3-Copy-14" cx="636" cy="462" r="6"></circle>
                <circle id="Oval-3-Copy-15" cx="508" cy="589" r="6"></circle>
                <circle id="Oval-3-Copy-16" cx="6" cy="558" r="6"></circle>
                <circle id="Oval-3-Copy-17" cx="158" cy="610" r="6"></circle>
                <circle id="Oval-3-Copy-18" cx="47" cy="30" r="6"></circle>
                <circle id="Oval-3-Copy-19" cx="47" cy="30" r="6"></circle>
            </g>
            <g id="Group-2-Copy-11" opacity="0.4" transform="translate(1367.000000, 1522.000000)">
                <circle id="Oval-3" cx="140" cy="115" r="6"></circle>
                <circle id="Oval-3-Copy" cx="228" cy="249" r="6"></circle>
                <circle id="Oval-3-Copy-2" cx="292" cy="143" r="6"></circle>
                <circle id="Oval-3-Copy-3" cx="140" cy="313" r="6"></circle>
                <circle id="Oval-3-Copy-4" cx="395" cy="325" r="6"></circle>
                <circle id="Oval-3-Copy-5" cx="321" cy="369" r="6"></circle>
                <circle id="Oval-3-Copy-6" cx="455" cy="155" r="6"></circle>
                <circle id="Oval-3-Copy-7" cx="333" cy="6" r="6"></circle>
                <circle id="Oval-3-Copy-8" cx="514" cy="301" r="6"></circle>
                <circle id="Oval-3-Copy-9" cx="455" cy="506" r="6"></circle>
                <circle id="Oval-3-Copy-10" cx="152" cy="450" r="6"></circle>
                <circle id="Oval-3-Copy-11" cx="18" cy="214" r="6"></circle>
                <circle id="Oval-3-Copy-12" cx="526" cy="18" r="6"></circle>
                <circle id="Oval-3-Copy-13" cx="704" cy="143" r="6"></circle>
                <circle id="Oval-3-Copy-14" cx="636" cy="462" r="6"></circle>
                <circle id="Oval-3-Copy-15" cx="508" cy="589" r="6"></circle>
                <circle id="Oval-3-Copy-16" cx="6" cy="558" r="6"></circle>
                <circle id="Oval-3-Copy-17" cx="158" cy="610" r="6"></circle>
                <circle id="Oval-3-Copy-18" cx="47" cy="30" r="6"></circle>
                <circle id="Oval-3-Copy-19" cx="47" cy="30" r="6"></circle>
            </g>
            <g id="Group-2-Copy-17" opacity="0.3" transform="translate(1399.000000, 2180.000000)">
                <circle id="Oval-3" cx="140" cy="115" r="6"></circle>
                <circle id="Oval-3-Copy" cx="228" cy="249" r="6"></circle>
                <circle id="Oval-3-Copy-2" cx="292" cy="143" r="6"></circle>
                <circle id="Oval-3-Copy-3" cx="140" cy="313" r="6"></circle>
                <circle id="Oval-3-Copy-4" cx="395" cy="325" r="6"></circle>
                <circle id="Oval-3-Copy-5" cx="321" cy="369" r="6"></circle>
                <circle id="Oval-3-Copy-6" cx="455" cy="155" r="6"></circle>
                <circle id="Oval-3-Copy-7" cx="333" cy="6" r="6"></circle>
                <circle id="Oval-3-Copy-8" cx="514" cy="301" r="6"></circle>
                <circle id="Oval-3-Copy-9" cx="455" cy="506" r="6"></circle>
                <circle id="Oval-3-Copy-10" cx="152" cy="450" r="6"></circle>
                <circle id="Oval-3-Copy-11" cx="18" cy="214" r="6"></circle>
                <circle id="Oval-3-Copy-12" cx="526" cy="18" r="6"></circle>
                <circle id="Oval-3-Copy-13" cx="704" cy="143" r="6"></circle>
                <circle id="Oval-3-Copy-14" cx="636" cy="462" r="6"></circle>
                <circle id="Oval-3-Copy-15" cx="508" cy="589" r="6"></circle>
                <circle id="Oval-3-Copy-16" cx="6" cy="558" r="6"></circle>
                <circle id="Oval-3-Copy-17" cx="158" cy="610" r="6"></circle>
                <circle id="Oval-3-Copy-18" cx="47" cy="30" r="6"></circle>
                <circle id="Oval-3-Copy-19" cx="47" cy="30" r="6"></circle>
            </g>
            <g id="Group-2-Copy-18" opacity="0.3" transform="translate(526.000000, 2239.000000)">
                <circle id="Oval-3" cx="140" cy="115" r="6"></circle>
                <circle id="Oval-3-Copy" cx="228" cy="249" r="6"></circle>
                <circle id="Oval-3-Copy-2" cx="292" cy="143" r="6"></circle>
                <circle id="Oval-3-Copy-3" cx="140" cy="313" r="6"></circle>
                <circle id="Oval-3-Copy-4" cx="395" cy="325" r="6"></circle>
                <circle id="Oval-3-Copy-5" cx="321" cy="369" r="6"></circle>
                <circle id="Oval-3-Copy-6" cx="455" cy="155" r="6"></circle>
                <circle id="Oval-3-Copy-7" cx="333" cy="6" r="6"></circle>
                <circle id="Oval-3-Copy-8" cx="514" cy="301" r="6"></circle>
                <circle id="Oval-3-Copy-9" cx="455" cy="506" r="6"></circle>
                <circle id="Oval-3-Copy-10" cx="152" cy="450" r="6"></circle>
                <circle id="Oval-3-Copy-11" cx="18" cy="214" r="6"></circle>
                <circle id="Oval-3-Copy-12" cx="526" cy="18" r="6"></circle>
                <circle id="Oval-3-Copy-13" cx="704" cy="143" r="6"></circle>
                <circle id="Oval-3-Copy-14" cx="636" cy="462" r="6"></circle>
                <circle id="Oval-3-Copy-15" cx="508" cy="589" r="6"></circle>
                <circle id="Oval-3-Copy-16" cx="6" cy="558" r="6"></circle>
                <circle id="Oval-3-Copy-17" cx="158" cy="610" r="6"></circle>
                <circle id="Oval-3-Copy-18" cx="47" cy="30" r="6"></circle>
                <circle id="Oval-3-Copy-19" cx="47" cy="30" r="6"></circle>
            </g>
            <g id="Group-2-Copy-19" opacity="0.3" transform="translate(0.000000, 2182.000000)">
                <circle id="Oval-3" cx="140" cy="115" r="6"></circle>
                <circle id="Oval-3-Copy" cx="228" cy="249" r="6"></circle>
                <circle id="Oval-3-Copy-2" cx="292" cy="143" r="6"></circle>
                <circle id="Oval-3-Copy-3" cx="140" cy="313" r="6"></circle>
                <circle id="Oval-3-Copy-4" cx="395" cy="325" r="6"></circle>
                <circle id="Oval-3-Copy-5" cx="321" cy="369" r="6"></circle>
                <circle id="Oval-3-Copy-6" cx="455" cy="155" r="6"></circle>
                <circle id="Oval-3-Copy-7" cx="333" cy="6" r="6"></circle>
                <circle id="Oval-3-Copy-8" cx="514" cy="301" r="6"></circle>
                <circle id="Oval-3-Copy-9" cx="455" cy="506" r="6"></circle>
                <circle id="Oval-3-Copy-10" cx="152" cy="450" r="6"></circle>
                <circle id="Oval-3-Copy-11" cx="18" cy="214" r="6"></circle>
                <circle id="Oval-3-Copy-12" cx="526" cy="18" r="6"></circle>
                <circle id="Oval-3-Copy-13" cx="704" cy="143" r="6"></circle>
                <circle id="Oval-3-Copy-14" cx="636" cy="462" r="6"></circle>
                <circle id="Oval-3-Copy-15" cx="508" cy="589" r="6"></circle>
                <circle id="Oval-3-Copy-16" cx="6" cy="558" r="6"></circle>
                <circle id="Oval-3-Copy-17" cx="158" cy="610" r="6"></circle>
                <circle id="Oval-3-Copy-18" cx="47" cy="30" r="6"></circle>
                <circle id="Oval-3-Copy-19" cx="47" cy="30" r="6"></circle>
            </g>
        </g>
    </g>
</svg>
