<?xml version="1.0" encoding="UTF-8"?>
<svg width="2500px" height="1407px" viewBox="0 0 2500 1407" version="1.1" xmlns="http://www.w3.org/2000/svg" xmlns:xlink="http://www.w3.org/1999/xlink">
    <g id="Page-1" stroke="none" stroke-width="1" fill="none" fill-rule="evenodd" opacity="0.348901721">
        <g id="Group" fill-rule="nonzero" fill="#29253D">
            <path d="M982.615728,696.793964 C500.063657,526.180542 464.409722,1.8189894e-12 464.409722,1.8189894e-12 C729.450225,11.1284719 988.512718,16.5682866 1249.13771,16.3888885 C1509.76271,16.5682866 1768.81941,11.1284719 2033.85991,1.8189894e-12 C2033.85991,1.8189894e-12 1998.20019,526.180542 1515.65391,696.793964 C1343.6053,757.627296 1154.66433,757.627296 982.615728,696.793964" id="path22-copy-28" transform="translate(1249.134818, 371.209481) scale(-1, 1) rotate(-180.000000) translate(-1249.134818, -371.209481) "></path>
            <path d="M-3.4985519e-14,913.042534 C832.123822,870.421007 1667.41894,870.421007 2499.54855,913.042534 L2256.8055,1136.17332 C2209.70481,1179.46614 2135.40504,1202.70688 2059.1724,1198.15827 C1520.50343,1165.9997 979.045114,1165.9997 440.370359,1198.15827 C364.137722,1202.70688 289.837956,1179.46614 242.737262,1136.17332 L-3.4985519e-14,913.042534 Z M1252.90097,1135.76502 C1257.07343,1135.684 1260.37783,1131.88192 1260.29102,1127.26386 L1256.41949,924.011553 C1256.33269,919.393498 1252.88361,915.724516 1248.71116,915.799748 C1244.54449,915.880766 1241.23431,919.682849 1241.32111,924.300905 L1245.19264,1127.55321 C1245.28523,1132.17127 1248.72852,1135.84604 1252.90097,1135.76502 Z M1051.56368,1126.9585 C1052.15396,1126.94692 1052.73845,1126.86012 1053.33451,1126.69808 C1057.36808,1125.54646 1059.77548,1121.02678 1058.71646,1116.59391 L1013.12039,926.327714 C1012.04979,921.894844 1007.92363,919.290677 1003.89586,920.390214 C999.856504,921.541835 997.454884,926.06151 998.513912,930.494381 L1044.10419,1120.76058 C1045.01854,1124.53373 1048.15511,1127.02794 1051.56368,1126.9585 Z M852.050655,1132.8848 C852.635146,1132.76327 853.190702,1132.57809 853.752044,1132.3061 C857.507831,1130.45424 859.070331,1125.56998 857.235841,1121.4091 L778.289083,942.387118 C776.443018,938.214665 771.911769,936.391748 768.144408,938.191517 C764.382834,940.054943 762.826121,944.927628 764.654824,949.100081 L843.607369,1128.12207 C845.181443,1131.66952 848.717322,1133.5561 852.050655,1132.8848 Z M645.185106,1125.54991 C645.746448,1125.36472 646.278856,1125.11009 646.799689,1124.76866 C650.306634,1122.45384 651.238346,1117.34389 648.888809,1113.34505 L547.852932,941.655236 C545.486034,937.656394 540.758025,936.342737 537.239507,938.599681 C533.732562,940.920283 532.800849,946.030236 535.150386,950.029079 L636.186264,1121.71889 C638.205939,1125.12745 641.950152,1126.62051 645.185106,1125.54991 Z M416.536237,1127.42816 C417.068644,1127.16774 417.56633,1126.84367 418.035079,1126.44437 C421.200589,1123.68395 421.443644,1118.49298 418.584848,1114.84136 L295.587166,958.128397 C292.716796,954.482564 287.849898,953.805481 284.667027,956.513814 C281.495731,959.27423 281.252676,964.465202 284.111472,968.116823 L407.109154,1124.82978 C409.55707,1127.93742 413.474894,1128.92122 416.536237,1127.42816 Z M1444.0344,1126.9585 C1447.44296,1127.02794 1450.57954,1124.53373 1451.4881,1120.76058 L1497.08416,930.494381 C1498.14319,926.06151 1495.73578,921.541835 1491.69643,920.390214 C1487.67444,919.290677 1483.5425,921.894844 1482.4719,926.327714 L1436.88162,1116.59391 C1435.82259,1121.02678 1438.23,1125.54646 1442.25778,1126.69808 C1442.85963,1126.86012 1443.44412,1126.94692 1444.0344,1126.9585 Z M1646.57612,1132.8848 C1649.91524,1133.5561 1653.44533,1131.66952 1655.02519,1128.12207 L1733.97195,949.100081 C1735.80644,944.927628 1734.24394,940.054943 1730.48816,938.191517 C1726.72079,936.391748 1722.18954,938.214665 1720.34348,942.387118 L1641.39094,1121.4091 C1639.56223,1125.56998 1641.11894,1130.45424 1644.88052,1132.3061 C1645.43607,1132.57809 1645.99742,1132.76327 1646.57612,1132.8848 Z M1853.95968,1125.54991 C1857.19464,1126.62051 1860.93885,1125.12745 1862.95274,1121.71889 L1963.9944,950.029079 C1966.34394,946.030236 1965.41223,940.920283 1961.8995,938.599681 C1958.38677,936.342737 1953.65876,937.656394 1951.29186,941.655236 L1850.25019,1113.34505 C1847.90644,1117.34389 1848.83816,1122.45384 1852.3451,1124.76866 C1852.86015,1125.11009 1853.39255,1125.36472 1853.95968,1125.54991 Z M2083.03567,1127.42816 C2086.09701,1128.92122 2090.00905,1127.93742 2092.46276,1124.82978 L2215.45465,968.116823 C2218.31345,964.465202 2218.07039,959.27423 2214.90488,956.513814 C2211.72201,953.805481 2206.85511,954.482564 2203.97896,958.128397 L2080.98706,1114.84136 C2078.12827,1118.49298 2078.37132,1123.68395 2081.53683,1126.44437 C2082.00558,1126.84367 2082.50326,1127.16774 2083.03567,1127.42816 Z" id="Combined-Shape"></path>
            <path d="M2491.56822,750.868056 C1666.35991,803.663193 829.519655,803.663193 4.34027778,750.868056 C20.1446755,802.280091 84.6412017,840.665507 162.789348,845.167822 C901.944422,887.771987 1593.97565,887.771987 2333.11915,845.167822 C2411.2673,840.665507 2475.75804,802.280091 2491.56822,750.868056" id="path30-copy-31" transform="translate(1247.954251, 813.994501) scale(-1, 1) rotate(-180.000000) translate(-1247.954251, -813.994501) "></path>
            <path d="M1748.90623,1396.27893 C1582.70831,1403.41435 1416.28471,1406.98495 1249.87267,1406.98495 C1083.46064,1406.98495 917.054394,1403.41435 750.868056,1396.28472 C818.281248,1294.16667 969.386569,1228.29861 1136.20369,1228.29861 L1363.5648,1228.29861 C1530.38771,1228.29861 1681.49882,1294.16667 1748.90623,1396.27893" id="path34-copy-31" transform="translate(1249.887140, 1317.641780) scale(-1, 1) rotate(-180.000000) translate(-1249.887140, -1317.641780) "></path>
        </g>
    </g>
</svg>
