<svg width="4502px" height="377px" viewBox="0 0 4502 377" version="1.1" xmlns="http://www.w3.org/2000/svg" xmlns:xlink="http://www.w3.org/1999/xlink">
  <g id="Page-1" stroke="none" stroke-width="1" fill="none" fill-rule="evenodd">
    <g id="Group-4">
      <path d="M2250,377 C1007.35931,377 0,377 0,377 C0,377 1007.35931,0 2250,0 C2250,0 2250,377 2250,377 Z M2250,377 C2250,377 2250,0 2250,0 C3493.74526,0 4502,377 4502,377 C4502,377 3493.74526,377 2250,377 Z" id="Combined-Shape" fill="#D8D8D8"></path>
      <ellipse fill="#D1CFCF" cx="2231" cy="115" rx="392" ry="50"></ellipse>
      <ellipse fill="#D1CFCF" cx="1056" cy="262" rx="250" ry="40"></ellipse>
      <ellipse fill="#D1CFCF" cx="3371.5" cy="309" rx="185.5" ry="30"></ellipse>
      <ellipse fill="#D1CFCF" cx="3004" cy="138" rx="100" ry="16"></ellipse>
      <ellipse fill="#D1CFCF" cx="1689" cy="285" rx="100" ry="16"></ellipse>
      <ellipse fill="#D1CFCF" cx="1539" cy="142" rx="50" ry="12"></ellipse>
      <ellipse fill="#D1CFCF" cx="3900" cy="328" rx="50" ry="12"></ellipse>
      <ellipse fill="#D1CFCF" cx="538" cy="305" rx="50" ry="12"></ellipse>
    </g>
  </g>
</svg>
